# xmcd
#
# Track frame offsets:
#	150
#	14347
#	34111
#	53670
#	73310
#	99426
#	111098
#	140211
#	159950
#	177757
#	195769
#
# Disc length: 2901 seconds
# Revision: 0
# Processed by: cddbd v1.5.2PL0 Copyright (c) Steve Scherf et al.
# Submitted via: dBpowerAMP V12.0
#
DISCID=8c0b530b
DTITLE=Paul Reddick - Wishbone
DYEAR=2012
DGENRE=Blues
TTITLE0=Photograph
TTITLE1=The Other Man
TTITLE2=Dancin in a Dream
TTITLE3=Whiskey is The Life of a Man
TTITLE4=The Ballad of Wishbone
TTITLE5=The Devil's Load
TTITLE6=Luna Moth And Butterfly
TTITLE7=I Ain't Sentimental
TTITLE8=Take me Ruby
TTITLE9=Lived You Long
TTITLE10=A Thousand Years
EXTD=
EXTT0=
EXTT1=
EXTT2=
EXTT3=
EXTT4=
EXTT5=
EXTT6=
EXTT7=
EXTT8=
EXTT9=
EXTT10=
PLAYORDER=
